<?xml version="1.0" encoding="UTF-8" standalone="no"?>
<!-- Created with Inkscape (http://www.inkscape.org/) -->

<svg
   width="37.967434mm"
   height="39.097519mm"
   viewBox="0 0 37.967434 39.097519"
   version="1.1"
   id="svg1"
   xml:space="preserve"
   inkscape:version="1.3.2 (091e20e, 2023-11-25, custom)"
   sodipodi:docname="drawing.svg"
   xmlns:inkscape="http://www.inkscape.org/namespaces/inkscape"
   xmlns:sodipodi="http://sodipodi.sourceforge.net/DTD/sodipodi-0.dtd"
   xmlns="http://www.w3.org/2000/svg"
   xmlns:svg="http://www.w3.org/2000/svg"><sodipodi:namedview
     id="namedview1"
     pagecolor="#ffffff"
     bordercolor="#666666"
     borderopacity="1.0"
     inkscape:showpageshadow="2"
     inkscape:pageopacity="0.0"
     inkscape:pagecheckerboard="0"
     inkscape:deskcolor="#d1d1d1"
     inkscape:document-units="mm"
     inkscape:zoom="0.70822811"
     inkscape:cx="137.66751"
     inkscape:cy="393.23488"
     inkscape:window-width="1920"
     inkscape:window-height="991"
     inkscape:window-x="-9"
     inkscape:window-y="-9"
     inkscape:window-maximized="1"
     inkscape:current-layer="layer1" /><defs
     id="defs1" /><g
     inkscape:label="Layer 1"
     inkscape:groupmode="layer"
     id="layer1"
     transform="translate(-22.910595,-110.29699)"><path
       d="m 29.007532,110.29714 c -0.704534,0 -1.271757,0.54414 -1.271757,1.22008 v 11.36313 l -4.437972,4.43074 c -0.889742,0.89347 -0.18451,2.03377 1.48518,2.40141 v 15.91634 c 0,2.08595 1.025391,3.76566 2.299085,3.76566 H 56.76036 c 1.273693,0 2.299084,-1.67971 2.299084,-3.76566 v -15.94218 c 1.64754,-0.40344 2.312682,-1.5462 1.420585,-2.44068 L 44.29187,111.08573 c -1.053775,-1.05166 -3.687537,-1.05166 -4.741313,0 l -6.023921,6.01358 v -5.58209 c 0,-0.67594 -0.567224,-1.22008 -1.271757,-1.22008 z m 2.89543,23.02961 h 5.619812 c 0.704538,0 1.271757,0.4893 1.271757,1.09709 v 11.46338 c 0,0.60778 -0.567219,1.09709 -1.271757,1.09709 h -5.619812 c -0.704538,0 -1.271757,-0.48931 -1.271757,-1.09709 v -11.46338 c 0,-0.60779 0.567219,-1.09709 1.271757,-1.09709 z m 16.262057,1.12086 h 5.619812 c 0.704538,0 1.271757,0.78649 1.271757,1.7632 v 2.80086 c 0,0.97671 -0.567219,1.7632 -1.271757,1.7632 h -5.619812 c -0.704538,0 -1.271757,-0.78649 -1.271757,-1.7632 v -2.80086 c 0,-0.97671 0.567219,-1.7632 1.271757,-1.7632 z"
       style="stroke-width:0.225"
       id="path62" /></g></svg>
