<?xml version="1.0" encoding="UTF-8" standalone="no"?>
<!-- Created with Inkscape (http://www.inkscape.org/) -->

<svg
   width="38.328926mm"
   height="34.737423mm"
   viewBox="0 0 38.328926 34.737423"
   version="1.1"
   id="svg1"
   xml:space="preserve"
   inkscape:version="1.3.2 (091e20e, 2023-11-25, custom)"
   sodipodi:docname="drawing.svg"
   xmlns:inkscape="http://www.inkscape.org/namespaces/inkscape"
   xmlns:sodipodi="http://sodipodi.sourceforge.net/DTD/sodipodi-0.dtd"
   xmlns="http://www.w3.org/2000/svg"
   xmlns:svg="http://www.w3.org/2000/svg"><sodipodi:namedview
     id="namedview1"
     pagecolor="#ffffff"
     bordercolor="#666666"
     borderopacity="1.0"
     inkscape:showpageshadow="2"
     inkscape:pageopacity="0.0"
     inkscape:pagecheckerboard="0"
     inkscape:deskcolor="#d1d1d1"
     inkscape:document-units="mm"
     inkscape:zoom="0.70822811"
     inkscape:cx="137.66751"
     inkscape:cy="393.23488"
     inkscape:window-width="1920"
     inkscape:window-height="991"
     inkscape:window-x="-9"
     inkscape:window-y="-9"
     inkscape:window-maximized="1"
     inkscape:current-layer="layer1" /><defs
     id="defs1" /><g
     inkscape:label="Layer 1"
     inkscape:groupmode="layer"
     id="layer1"
     transform="translate(-75.907541,-113.15129)"><path
       d="m 93.251183,113.15129 c -0.983081,0 -1.774568,0.82049 -1.774568,1.83968 v 1.21853 c 0,0.0512 0.01055,0.0992 0.01447,0.14935 h -3.075781 c -3.140143,6e-5 -5.929552,2.20766 -6.92981,5.48442 l -1.711006,5.60586 c -2.051512,0.72446 -3.41121,2.35352 -3.49281,4.18475 l -0.374138,11.05153 h 2.686141 v 2.04277 c 0,1.75088 1.433355,3.16053 3.213758,3.16053 1.780402,0 3.213757,-1.40965 3.213757,-3.16053 v -2.04277 h 19.900594 v 2.04277 c 0,1.75089 1.43335,3.16053 3.21376,3.16053 1.78041,0 3.21375,-1.40964 3.21375,-3.16053 v -2.04277 h 2.88717 l -0.37414,-11.05153 c -0.0815,-1.83113 -1.44099,-3.46016 -3.49229,-4.18475 l -1.71101,-5.60586 c -1.00033,-3.27697 -3.78998,-5.48461 -6.93033,-5.48442 h -3.07526 c 0.004,-0.0501 0.0145,-0.0981 0.0145,-0.14935 v -1.21853 c 0,-1.01919 -0.79149,-1.83968 -1.77457,-1.83968 z m -3.690214,4.89789 h 3.690214 1.821077 1.82108 3.6897 c 2.59984,-2.1e-4 4.90939,1.82737 5.73763,4.54029 l 1.35237,4.43126 H 95.07226 82.470963 l 1.352889,-4.43126 c 0.82817,-2.7127 3.137476,-4.54026 5.737117,-4.54029 z m -4.539774,14.42135 c 1.104962,0.002 2.063802,0.76288 2.316138,1.83864 0.04308,0.17822 0.06545,0.36081 0.06666,0.54416 -0.01356,0.40438 -0.129868,0.79867 -0.337964,1.14566 -0.410566,0.74909 -1.190761,1.22111 -2.044836,1.23714 -0.854075,-0.016 -1.63427,-0.48805 -2.044837,-1.23714 -0.208096,-0.34699 -0.324407,-0.74128 -0.337963,-1.14566 0.01469,-0.18497 0.05094,-0.3676 0.108003,-0.54416 0.248648,-1.06091 1.185329,-1.818 2.274797,-1.83864 z m 19.900595,0 c 1.10496,0.002 2.0638,0.76288 2.31614,1.83864 0.0431,0.17822 0.0654,0.36081 0.0667,0.54416 -0.0136,0.40438 -0.12987,0.79867 -0.33797,1.14566 -0.41056,0.74909 -1.19076,1.22111 -2.04483,1.23714 -0.85408,-0.016 -1.63427,-0.48805 -2.04484,-1.23714 -0.2081,-0.34699 -0.32441,-0.74128 -0.33796,-1.14566 0.0147,-0.18497 0.0509,-0.3676 0.108,-0.54416 0.24865,-1.06091 1.18533,-1.818 2.2748,-1.83864 z"
       style="fill:#000000;fill-opacity:1;stroke-width:0.246637"
       id="path42"
       inkscape:export-filename="taxi.png"
       inkscape:export-xdpi="96"
       inkscape:export-ydpi="96" /></g></svg>
